<?xml version="1.0" standalone="no"?>
<!DOCTYPE svg PUBLIC "-//W3C//DTD SVG 20010904//EN"
 "http://www.w3.org/TR/2001/REC-SVG-20010904/DTD/svg10.dtd">
<svg version="1.0" xmlns="http://www.w3.org/2000/svg"
 width="626.000000pt" height="626.000000pt" viewBox="0 0 626.000000 626.000000"
 preserveAspectRatio="xMidYMid meet">

<g transform="translate(0.000000,626.000000) scale(0.100000,-0.100000)"
fill="#000000" stroke="none">
<path d="M2550 6250 c-358 -50 -646 -176 -904 -398 -82 -71 -190 -184 -225
-234 -106 -157 -138 -210 -175 -285 -118 -240 -168 -461 -168 -738 0 -261 41
-446 155 -700 38 -85 54 -114 116 -210 82 -127 248 -306 369 -398 230 -174
495 -287 773 -328 107 -16 380 -16 484 0 598 89 1106 503 1315 1071 154 421
128 902 -73 1305 -110 222 -270 417 -474 578 -205 162 -452 270 -735 323 -99
18 -367 26 -458 14z"/>
<path d="M1239 3261 c-194 -130 -297 -251 -486 -569 -56 -94 -183 -355 -214
-437 -108 -292 -151 -453 -200 -745 -7 -41 -13 -140 -13 -220 0 -138 1 -150
32 -238 67 -196 133 -264 360 -377 461 -229 1157 -338 2062 -322 406 8 900 46
900 69 0 5 -19 45 -41 91 -95 188 -141 383 -141 597 1 480 238 907 647 1167
151 96 377 175 553 193 59 7 112 13 119 15 13 4 -66 166 -134 273 -142 225
-206 308 -305 393 -73 63 -212 159 -230 159 -6 0 -61 -49 -123 -108 -274 -264
-610 -430 -1005 -498 -133 -23 -439 -23 -580 0 -198 33 -414 105 -580 194
-175 94 -293 180 -442 322 -49 47 -93 86 -97 88 -5 1 -41 -20 -82 -47z"/>
<path d="M4630 2204 c-252 -45 -486 -181 -648 -377 -106 -128 -176 -260 -221
-412 -109 -377 3 -809 282 -1086 253 -251 623 -372 960 -314 124 22 207 49
322 106 275 135 475 371 566 667 92 302 50 635 -115 907 -104 173 -298 344
-486 428 -199 89 -448 120 -660 81z m339 -405 c91 -14 154 -44 200 -94 57 -62
73 -105 73 -200 -1 -144 -55 -237 -191 -328 -133 -90 -151 -121 -151 -264 l0
-83 -119 0 c-104 0 -120 2 -126 18 -14 35 -18 267 -5 307 18 53 71 108 165
170 45 30 87 65 93 80 13 28 16 93 6 120 -16 41 -123 58 -220 34 -25 -6 -47
-10 -49 -7 -3 2 -12 40 -20 84 -9 43 -18 89 -20 101 -4 18 2 24 46 38 99 33
212 42 318 24z m-71 -1122 c35 -35 37 -41 37 -100 0 -49 -5 -69 -24 -96 -60
-84 -222 -80 -273 7 -11 19 -18 51 -18 86 0 48 4 60 32 92 42 48 60 54 141 51
63 -2 70 -5 105 -40z"/>
</g>
</svg>
