<?xml version="1.0" standalone="no"?>
<!DOCTYPE svg PUBLIC "-//W3C//DTD SVG 20010904//EN"
 "http://www.w3.org/TR/2001/REC-SVG-20010904/DTD/svg10.dtd">
<svg version="1.0" xmlns="http://www.w3.org/2000/svg"
 width="4063.000000pt" height="1361.000000pt" viewBox="0 0 4063.000000 1361.000000"
 preserveAspectRatio="xMidYMid meet">

<g transform="translate(0.000000,1361.000000) scale(0.100000,-0.100000)"
fill="#000000" stroke="none">
<path d="M7377 10348 c-37 -879 -339 -1725 -866 -2422 -566 -751 -1390 -1297
-2315 -1536 -296 -77 -532 -113 -858 -132 l-208 -12 0 -793 0 -793 123 0 c231
0 566 31 862 81 1614 268 3054 1202 3951 2564 338 513 583 1052 749 1648 125
447 205 996 205 1403 l0 144 -818 0 -819 0 -6 -152z"/>
<path d="M11240 9060 l0 -1440 250 0 250 0 0 1440 0 1440 -250 0 -250 0 0
-1440z"/>
<path d="M20560 9905 l0 -315 -165 0 -165 0 0 -195 0 -195 164 0 164 0 5 -542
c5 -588 8 -628 62 -745 67 -147 169 -242 309 -286 65 -20 91 -22 291 -22 121
0 241 4 268 8 l47 8 0 203 0 203 -52 -10 c-72 -13 -267 -2 -315 18 -61 26
-101 72 -125 145 -21 62 -22 85 -26 543 l-4 477 226 0 226 0 0 195 0 195 -225
0 -225 0 0 315 0 315 -230 0 -230 0 0 -315z"/>
<path d="M21910 10035 l0 -185 230 0 230 0 0 185 0 185 -230 0 -230 0 0 -185z"/>
<path d="M36520 9905 l0 -315 -165 0 -165 0 0 -195 0 -195 164 0 165 0 3 -552
c4 -530 5 -556 26 -631 57 -208 170 -334 347 -390 63 -20 91 -22 280 -22 116
0 236 4 268 8 l57 8 0 203 0 203 -42 -8 c-114 -22 -311 -3 -369 36 -47 31 -86
109 -99 200 -5 39 -10 267 -10 508 l0 437 225 0 225 0 0 195 0 195 -225 0
-225 0 0 315 0 315 -230 0 -230 0 0 -315z"/>
<path d="M13185 9629 c-184 -27 -345 -115 -440 -241 l-45 -60 0 131 0 131
-230 0 -230 0 0 -985 0 -985 230 0 230 0 0 573 c0 543 1 578 20 653 44 173
132 295 253 350 58 27 70 29 192 29 113 0 136 -3 178 -22 66 -31 144 -107 177
-173 65 -128 63 -115 67 -792 l4 -618 230 0 230 0 -4 728 c-4 814 -2 789 -78
948 -87 184 -258 302 -484 334 -83 11 -216 11 -300 -1z"/>
<path d="M17125 9630 c-198 -26 -366 -104 -502 -233 -130 -124 -219 -280 -270
-476 -35 -132 -44 -391 -18 -541 71 -426 323 -704 715 -787 120 -25 374 -25
485 1 309 71 540 265 621 521 13 42 24 80 24 85 0 6 -91 10 -233 10 l-234 0
-19 -42 c-10 -24 -46 -70 -79 -104 -52 -53 -71 -65 -129 -83 -85 -26 -270 -29
-359 -6 -131 34 -230 112 -287 226 -32 63 -76 241 -65 259 4 6 273 10 705 10
l699 0 8 48 c4 26 8 121 8 212 -1 139 -4 178 -24 250 -120 447 -550 714 -1046
650z m290 -355 c116 -31 224 -113 278 -214 29 -53 57 -156 57 -213 l0 -38
-490 0 -490 0 0 28 c0 47 27 156 51 208 48 102 167 193 299 228 73 20 221 20
295 1z"/>
<path d="M19116 9629 c-180 -26 -315 -88 -422 -194 -119 -117 -161 -234 -151
-415 16 -274 131 -381 587 -544 371 -133 433 -164 470 -236 36 -71 21 -168
-35 -225 -60 -60 -217 -95 -338 -75 -164 26 -250 87 -286 205 -12 37 -21 82
-21 101 l0 34 -226 0 -226 0 7 -67 c27 -258 172 -456 411 -564 195 -89 485
-102 723 -33 237 69 394 221 437 423 37 178 0 347 -103 461 -86 96 -181 144
-549 280 -325 120 -361 139 -395 214 -21 47 -23 67 -8 119 37 135 232 201 420
141 89 -28 155 -119 166 -230 l6 -54 225 0 225 0 -7 65 c-25 241 -182 441
-428 543 -132 55 -319 75 -482 51z"/>
<path d="M23350 9625 c-206 -32 -364 -121 -461 -259 -67 -95 -89 -170 -89
-305 0 -159 34 -261 114 -342 97 -98 217 -157 571 -279 275 -95 361 -148 384
-236 15 -58 -2 -136 -40 -179 -84 -95 -323 -119 -481 -48 -104 46 -168 146
-168 260 l0 43 -226 0 -227 0 6 -78 c14 -178 108 -351 251 -458 169 -127 374
-184 616 -170 384 21 634 183 699 451 18 74 16 232 -4 302 -38 133 -127 229
-282 307 -82 41 -160 73 -403 161 -262 96 -319 127 -356 197 -27 53 -11 152
34 201 54 60 192 95 305 77 146 -22 223 -101 242 -247 l7 -53 223 0 224 0 -5
53 c-33 316 -271 551 -616 607 -83 13 -213 11 -318 -5z"/>
<path d="M25190 9625 c-375 -59 -588 -305 -550 -637 31 -271 141 -358 685
-548 251 -88 336 -134 372 -203 18 -36 20 -110 4 -159 -57 -173 -461 -195
-610 -33 -40 43 -71 121 -71 176 0 61 8 59 -231 59 l-219 0 0 -53 c0 -120 56
-266 146 -380 83 -106 244 -204 409 -249 115 -31 379 -31 512 0 250 57 411
180 483 369 32 81 40 273 16 359 -24 83 -89 176 -161 231 -98 74 -189 115
-540 243 -204 75 -269 107 -314 154 -67 69 -51 197 32 260 67 52 176 73 283
56 142 -23 208 -88 235 -234 l12 -66 219 0 218 0 0 51 c0 134 -67 277 -185
394 -92 92 -161 136 -277 176 -148 50 -294 61 -468 34z"/>
<path d="M27199 9625 c-477 -75 -779 -471 -779 -1020 0 -135 11 -224 41 -340
117 -457 491 -717 994 -692 61 3 143 13 182 21 248 53 471 211 571 404 37 71
72 168 72 199 0 10 -46 13 -230 13 l-230 0 -21 -42 c-27 -54 -114 -145 -159
-168 -64 -32 -140 -43 -276 -38 -148 6 -205 23 -297 88 -99 71 -170 208 -184
358 l-6 62 700 0 c658 0 701 1 708 18 14 34 18 317 6 400 -28 193 -113 358
-256 497 -208 203 -512 290 -836 240z m322 -351 c199 -59 329 -227 329 -424
l0 -40 -490 0 -489 0 5 53 c8 80 40 177 75 230 54 82 157 151 272 182 73 19
230 19 298 -1z"/>
<path d="M29511 9625 c-143 -32 -287 -127 -359 -235 l-42 -62 0 131 0 131
-230 0 -230 0 0 -985 0 -985 230 0 230 0 0 568 c0 593 3 645 45 766 68 197
196 284 402 274 170 -9 252 -82 305 -275 21 -76 22 -97 26 -705 l3 -628 229 0
229 0 3 608 c3 542 6 613 21 667 45 154 124 264 220 306 70 30 211 38 289 15
105 -30 185 -130 225 -278 15 -55 17 -143 20 -690 l4 -628 230 0 229 0 0 658
c0 378 -4 695 -10 747 -23 199 -75 320 -185 430 -80 80 -155 124 -270 157 -68
19 -103 22 -235 22 -141 0 -162 -3 -236 -27 -137 -46 -285 -158 -353 -270
l-23 -38 -49 75 c-80 122 -188 201 -324 237 -106 27 -304 35 -394 14z"/>
<path d="M32674 9626 c-427 -70 -709 -376 -773 -841 -31 -224 5 -506 89 -691
151 -334 469 -523 880 -523 278 -1 510 89 686 264 79 78 130 159 168 265 44
120 62 110 -204 110 l-230 0 -21 -42 c-26 -51 -113 -144 -154 -166 -57 -29
-130 -42 -245 -42 -182 0 -286 37 -384 137 -72 73 -136 231 -136 336 l0 37
699 0 c656 0 699 1 706 18 4 9 10 94 12 187 4 146 2 184 -16 269 -24 119 -95
268 -171 363 -119 149 -303 262 -500 308 -97 23 -301 28 -406 11z m311 -350
c196 -52 334 -225 335 -418 l0 -48 -489 0 -488 0 4 53 c6 77 38 176 73 229 54
81 160 152 273 183 67 18 227 19 292 1z"/>
<path d="M35033 9625 c-198 -36 -338 -120 -450 -271 l-22 -29 0 133 -1 132
-230 0 -230 0 0 -985 0 -985 230 0 230 0 0 544 c0 600 4 656 61 790 58 139
140 219 262 257 97 30 248 24 328 -13 112 -51 178 -140 221 -295 21 -75 22
-97 26 -680 l3 -603 230 0 229 0 0 653 c0 646 -5 771 -35 892 -21 81 -73 189
-123 251 -47 60 -166 143 -247 173 -128 48 -332 63 -482 36z"/>
<path d="M14212 9581 c2 -5 199 -448 438 -984 l435 -976 156 -1 155 0 445 983
445 982 -245 3 c-169 2 -247 -1 -251 -9 -4 -6 -128 -298 -275 -650 -148 -352
-271 -636 -275 -632 -4 4 -126 297 -271 650 l-264 643 -248 0 c-138 0 -247 -4
-245 -9z"/>
<path d="M21910 8605 l0 -985 230 0 230 0 0 985 0 985 -230 0 -230 0 0 -985z"/>
<path d="M12420 6903 c-385 -38 -708 -190 -976 -457 -229 -229 -373 -505 -430
-821 -22 -121 -24 -393 -5 -505 111 -652 582 -1140 1235 -1282 86 -19 133 -22
311 -22 179 0 225 3 311 22 873 189 1404 1012 1210 1873 -109 480 -464 895
-926 1080 -229 92 -507 135 -730 112z m401 -516 c302 -79 547 -280 684 -561
94 -192 128 -376 106 -572 -29 -256 -123 -456 -300 -637 -209 -215 -458 -319
-761 -318 -281 1 -521 96 -718 285 -112 107 -165 180 -228 311 -75 156 -95
238 -101 420 -6 168 8 271 54 398 130 367 428 619 817 693 111 21 328 12 447
-19z"/>
<path d="M18820 5360 l0 -1480 230 0 230 0 0 131 0 131 40 -51 c82 -103 219
-189 375 -233 110 -31 300 -31 428 1 389 94 668 390 752 796 19 94 22 300 5
396 -71 413 -360 727 -758 826 -47 12 -111 17 -217 17 -130 1 -160 -2 -225
-22 -148 -47 -273 -125 -355 -224 l-40 -47 -3 619 -2 620 -230 0 -230 0 0
-1480z m1175 115 c93 -24 181 -73 250 -140 76 -73 109 -125 148 -230 26 -68
31 -98 35 -202 8 -220 -47 -373 -182 -500 -132 -126 -285 -177 -459 -155 -288
36 -490 269 -505 583 -6 131 14 230 68 345 69 143 214 261 366 298 79 19 206
19 279 1z"/>
<path d="M17432 6391 c-72 -120 -132 -221 -132 -225 0 -3 112 -6 249 -6 l249
0 161 225 160 225 -277 0 -277 0 -133 -219z"/>
<path d="M17380 5888 c-147 -21 -313 -93 -431 -188 -155 -124 -275 -328 -324
-550 -25 -114 -31 -372 -12 -496 76 -478 370 -765 834 -815 466 -50 873 171
992 540 12 35 21 70 21 78 0 10 -45 13 -233 13 l-233 0 -21 -42 c-34 -72 -105
-142 -175 -174 -61 -28 -68 -29 -213 -29 -122 0 -161 4 -210 20 -136 44 -243
154 -285 293 -23 74 -40 173 -33 185 2 4 319 7 703 7 l699 0 8 48 c4 26 8 124
7 217 -1 140 -5 184 -22 250 -89 329 -367 580 -707 640 -95 16 -262 18 -365 3z
m309 -349 c191 -44 341 -231 341 -426 l0 -43 -490 0 c-460 0 -490 1 -490 18 0
58 25 157 55 218 53 109 151 189 279 225 69 20 235 24 305 8z"/>
<path d="M21917 5884 c-434 -78 -710 -406 -758 -899 -41 -424 118 -811 410
-1000 272 -176 692 -204 997 -65 230 104 394 296 448 523 l6 27 -232 0 -233 0
-28 -49 c-35 -63 -104 -134 -153 -159 -58 -29 -133 -42 -242 -42 -206 0 -346
65 -432 201 -37 57 -75 169 -85 252 l-7 57 706 0 c388 0 706 3 706 8 0 4 5 66
10 137 21 279 -28 478 -162 660 -135 183 -357 317 -588 354 -89 15 -269 12
-363 -5z m352 -353 c162 -50 271 -170 306 -338 8 -38 15 -80 15 -95 l0 -28
-490 0 -490 0 0 34 c0 202 138 376 343 431 79 21 242 19 316 -4z"/>
<path d="M24106 5885 c-331 -63 -589 -284 -706 -604 -56 -153 -73 -265 -67
-451 6 -176 23 -270 73 -399 99 -249 313 -459 554 -543 240 -83 565 -72 804
29 224 94 387 285 456 535 33 119 54 108 -207 108 l-228 0 -35 -77 c-23 -53
-51 -94 -90 -134 -76 -78 -155 -104 -315 -103 -176 0 -301 49 -401 156 -102
111 -144 228 -151 424 -9 229 40 386 158 510 108 112 210 154 374 154 261 -1
398 -102 449 -332 l6 -28 231 0 231 0 -7 43 c-11 76 -44 195 -69 251 -97 219
-302 380 -568 447 -112 28 -378 35 -492 14z"/>
<path d="M14450 5187 c0 -389 4 -697 10 -747 43 -357 240 -559 586 -600 301
-36 589 66 720 255 l39 58 3 -137 3 -136 229 0 230 0 0 985 0 985 -229 0 -230
0 -3 -577 c-4 -557 -5 -581 -26 -656 -74 -265 -227 -387 -472 -375 -157 8
-256 67 -323 196 -71 134 -70 128 -74 805 l-4 607 -230 0 -229 0 0 -663z"/>
<path d="M3130 3330 l0 -220 2950 0 2950 0 0 220 0 220 -2950 0 -2950 0 0
-220z"/>
<path d="M12550 3330 l0 -220 725 0 725 0 0 220 0 220 -725 0 -725 0 0 -220z"/>
</g>
</svg>
