<?xml version="1.0" encoding="utf-8"?>
<!-- Generator: Adobe Illustrator 17.0.0, SVG Export Plug-In . SVG Version: 6.00 Build 0)  -->
<!DOCTYPE svg PUBLIC "-//W3C//DTD SVG 1.1//EN" "http://www.w3.org/Graphics/SVG/1.1/DTD/svg11.dtd">
<svg version="1.1" id="YMCA_Logo_art" xmlns="http://www.w3.org/2000/svg" xmlns:xlink="http://www.w3.org/1999/xlink" x="0px"
	 y="0px" width="200px" height="204px" viewBox="0 0 200 204" enable-background="new 0 0 200 204" xml:space="preserve">
<g>
	<path fill="#802528" d="M132.135,175.817h1.104c0.719,0,1.189-0.13,1.189-0.815c0-0.601-0.471-0.767-1.189-0.767h-1.104V175.817z
		 M131.203,173.57h2.201c1.301,0,1.949,0.474,1.949,1.467c0,0.846-0.582,1.447-1.476,1.447l1.644,2.326h-0.995l-1.579-2.326h-0.813
		v2.326h-0.932V173.57z M133.078,179.869c2.229,0,3.955-1.578,3.955-3.677c0-2.101-1.727-3.662-3.955-3.662
		c-2.245,0-3.975,1.562-3.975,3.662C129.103,178.291,130.833,179.869,133.078,179.869 M133.078,171.717
		c2.705,0,4.883,2.001,4.883,4.476c0,2.472-2.178,4.475-4.883,4.475c-2.719,0-4.896-2.003-4.896-4.475
		C128.182,173.718,130.359,171.717,133.078,171.717"/>
</g>
<path fill="#802528" d="M120.54,110.494L75.077,32.121c-1.577-2.908-4.36-4.113-6.776-4.113c0,0-36.429,0-36.438,0
	c-1.154,0-2.096,0.947-2.096,2.101c0,0.406,0.147,0.763,0.348,1.082l46.641,79.684c1.251,2.004,1.974,4.375,1.974,6.912
	c0,0,0.022,59.154,0.022,59.188c0,1.885,1.533,3.385,3.415,3.385c0.038,0,37.18,0,37.18,0c1.885-0.005,3.405-1.56,3.405-3.441
	l0.023-59.447C122.775,114.869,121.825,112.534,120.54,110.494z"/>
<path fill="#EF3E42" d="M171.862,30.672c0-1.533-1.243-2.775-2.774-2.775c-0.012,0-81.171,0-81.184,0
	c-1.533,0-2.775,1.243-2.775,2.775c0,0.494,0.14,0.95,0.365,1.352l40.578,70.258c0.47,0.865,1.375,1.458,2.428,1.458
	c1.023,0,1.908-0.561,2.389-1.386l40.574-70.266C171.711,31.672,171.862,31.191,171.862,30.672z M143.613,46.239l0.001,0.001
	l-14.376,24.9h-0.004c-0.149,0.252-0.42,0.421-0.734,0.421c-0.317,0-0.591-0.174-0.738-0.43h-0.005l-14.38-24.907l0.002-0.003
	c-0.068-0.123-0.111-0.262-0.111-0.413c0-0.473,0.384-0.856,0.857-0.856c0.002,0,0.004,0,0.008,0h28.734v0
	c0.004,0,0.007-0.001,0.01-0.001c0.474,0,0.856,0.383,0.856,0.856C143.733,45.966,143.687,46.112,143.613,46.239z"/>
</svg>
