<?xml version="1.0" encoding="utf-8"?>
<!-- Generator: Adobe Illustrator 25.0.0, SVG Export Plug-In . SVG Version: 6.00 Build 0)  -->
<svg version="1.1" id="Layer_1" xmlns="http://www.w3.org/2000/svg" xmlns:xlink="http://www.w3.org/1999/xlink" x="0px" y="0px"
	 viewBox="0 0 360 144" style="enable-background:new 0 0 360 144;" xml:space="preserve">
<style type="text/css">
	.st0{fill:#912338;}
	.st1{fill:#897334;}
	.st2{fill:#FFFFFF;}
	.st3{fill:#912338;stroke:#98002E;stroke-width:0.2607;stroke-miterlimit:10;}
	.st4{fill:#912338;stroke:#98002E;stroke-width:0.2607;}
</style>
<g>
	<g>
		<path class="st0" d="M98.2,78.8c-3,2.1-6.5,3.1-10.8,3.2c-4.9,0.1-9.4-1.5-12.5-4.6c-2.9-2.9-4.4-6.7-4.3-11
			c0-4.5,1.8-8.6,4.8-11.6c3-2.9,7.2-4.5,11.7-4.4c3.4,0,5.6,0.6,8.5,2.3l1.4,0.8v-6l-0.6-0.2c-3.3-1.4-5.6-1.7-9.4-1.7
			c-6.6-0.1-12.6,2.2-16.8,6.5c-3.8,3.8-5.9,8.9-5.9,14.4c0,5.7,2.2,10.9,6.2,14.7c4.3,4.1,10.3,6.2,16.9,5.9c0,0,0.5,0,0.5,0
			c3.4-0.1,5.6-0.1,9-1.4c0,0,0.4-0.2,0.4-0.2l3.4-8.5L98.2,78.8z"/>
		<path class="st0" d="M128.9,61.4c-2.8-2.9-6.6-4.6-10.7-4.7h0c-4-0.1-8,1.5-10.9,4.4c-2.9,2.8-4.4,6.6-4.4,10.5
			c0,8.1,6.6,14.8,14.8,14.9c4.1,0.1,7.9-1.5,10.8-4.3c2.8-2.7,4.4-6.4,4.5-10.3C133.1,68,131.6,64.3,128.9,61.4z M117.9,81.6
			c-4.9,0-8.7-4.3-8.8-9.8c0-2.9,1.1-5.8,3-7.7c1.6-1.6,3.6-2.4,5.8-2.3c4.8,0.2,8.8,4.7,8.8,9.9l0,0.3
			C126.7,77.3,122.7,81.6,117.9,81.6z"/>
		<path class="st0" d="M196.5,79.9c-1.7,1.2-4.8,2-7.9,2.1c-2.7,0.1-5.3-1-7.2-2.9c-1.9-1.9-3-4.6-2.9-7.4c0-5.7,4.3-10,9.9-10.1
			c2.5,0,5.2,0.7,6.8,2l1.7,1.3v-6.5l-0.6-0.3c-2.9-1.2-4.9-1.2-7.6-1.3l-0.3,0c-4.6-0.1-8.8,1.5-11.9,4.5
			c-2.7,2.7-4.2,6.3-4.2,10.3c0,0.1,0,0.2,0,0.3c0.1,4,1.6,7.7,4.4,10.4c3,2.9,7.3,4.4,12,4.2l0.9,0c2.5-0.1,4.6-0.1,7.2-1.2
			c0,0,0.2-0.1,0.2-0.1l0.3-0.1l1.1-6.7L196.5,79.9z"/>
		<path class="st0" d="M228.5,61.4c-2.8-3-6.6-4.6-10.7-4.7c-4-0.1-8,1.5-10.9,4.4c-2.9,2.8-4.4,6.6-4.4,10.5
			c0,8.1,6.6,14.8,14.8,14.9c4.1,0.1,7.9-1.5,10.8-4.3c2.8-2.7,4.4-6.4,4.5-10.3c0-0.1,0-0.2,0-0.3
			C232.7,67.8,231.2,64.2,228.5,61.4z M217.6,81.6c-4.9,0-8.7-4.3-8.8-9.8c0-2.9,1.1-5.8,3-7.7c1.6-1.6,3.6-2.4,5.8-2.3
			c4.9,0.2,8.8,4.6,8.8,9.9l0,0.3C226.3,77.3,222.4,81.6,217.6,81.6z"/>
		<path class="st0" d="M338.6,86l-0.8-1.5c-0.3-0.6-0.5-1-0.6-1.7c-0.2-0.7-0.3-1.1-0.3-1.8V66.4c0-6.5-3.7-9.7-11.5-10h0
			c-2.9,0-5.8,0.1-8.7,1.9l-0.5,0.3v6l1.7-1.5c1.5-1.3,3.9-1.9,7.3-1.9c3.2,0,5.7,1.6,5.7,3.8c0,1.9-1,2.4-3.1,2.7
			c0,0-0.5,0.1-5.6,1c-5.6,0.9-8.1,3.4-8.2,8.4c0,0.2,0,0.3,0,0.5c0,2.2,0.8,4.2,2.3,5.8c1.9,1.9,4.8,3.1,7.9,3
			c2.1,0,4.5-0.4,6.9-1.9c0,0.5,0,1.6,0,1.6L338.6,86z M331.2,71.9c0,1.2,0,5.1,0,5.1c0,3-3.3,4.9-6.4,4.9c-1.6,0-3.1-0.6-4-1.6
			c-0.7-0.8-1-1.6-1-2.6l0-0.3c0.1-2.1,1.6-3.6,4-4c0,0,5.1-0.9,5.1-0.9C328.9,72.4,330.3,72.1,331.2,71.9z"/>
		<path class="st0" d="M159.2,85.1l-1.4,1.8l10.2,0l-1.3-1.7c-0.3-0.4-0.4-0.6-0.5-1c-0.3-1-0.3-1.4-0.3-2.3V68.1
			c0-2.9-1.2-5.6-3.3-7.6c-2.3-2.2-5.5-3.4-8.8-3.2c-2.9,0.1-5.1,0.8-7.1,2.3c0-0.4,0-1.4,0-1.4l-0.6,0h-6.6l0.9,2.7c0,0,0,0,0,0
			c0,0.1,0,0.2,0.1,0.4l0.2,1v21.3c0,0.3,0,0.5-0.1,0.8c0,0-0.4,0.9-0.4,0.9c0,0-0.5,0.8-0.5,0.8l-0.6,0.9h9.3l-1.3-2.7
			c-0.2-0.8-0.3-1.3-0.3-2.4V68.3c0-3.6,2.5-6.1,6.1-6.2c2.1-0.1,4.2,0.7,5.6,2c0.9,0.9,1.4,2,1.4,3.2v14.6c0,0,0,0.8,0,0.8
			c0,0,0,1.5,0,1.5C159.8,84.5,159.6,84.6,159.2,85.1z"/>
		<path class="st0" d="M254.1,56.3c-2.1-0.4-4-0.1-5.7,0.9c-0.8,0.4-1.3,0.9-1.9,1.4c0-0.2,0-1.1,0-1.1h-8.4l1.2,1.4
			c0.5,0.6,0.7,0.9,0.9,1.5c0.2,0.6,0.3,1,0.3,1.6v19.1c0,0,0,0.4,0,0.4c0,0.7,0,1.2-0.2,1.9c-0.1,0.3-0.2,0.5-0.4,0.8
			c0,0-1.2,2-1.2,2l1.9,0h8.3l-1-1.6c-0.4-0.7-0.6-1.1-0.8-1.8c-0.3-1-0.4-1.5-0.4-2.5V68.5c0-2.6,1.2-5.1,2.9-6.1
			c1.4-0.7,2.4-0.8,4-0.4c0,0,1.4,0.4,1.4,0.4v-6L254.1,56.3z"/>
		<path class="st0" d="M305.1,45.8h-6.9v7.1h6.9V45.8z M298.6,84.5l-1.2,1.7h9.4l-1.1-1.9c0,0-0.3-0.8-0.3-0.8
			c-0.1-0.4-0.1-0.6-0.1-1.2v-25H297l1.2,1.2c0.3,0.3,0.4,0.5,0.6,0.9c0.1,0.3,0.1,0.6,0.1,1c0,0.1,0,0.5,0,0.5v21.4
			c0,0,0,0.4,0,0.4l-0.1,1C298.9,84,298.8,84.1,298.6,84.5z"/>
		<path class="st0" d="M289.4,86.3l-1.4-2c-0.3-0.4-0.4-0.5-0.4-0.8c-0.3-2.2-0.3-3.5-0.3-5.8V45.8h-8.3l1.4,1.7
			c0,0,0.3,0.5,0.4,0.6c0,0,0,0.1,0,0.1l0,0l0.2,0.8c0,0,0,6.4,0,9.8c-2.2-1.6-4.5-2.3-7.3-2.1c-8.3,0.3-13.1,5.7-13.3,14.9
			c0,4.7,1.7,9.1,4.6,12c2.5,2.4,5.7,3.6,9.3,3.4c2.6-0.1,4.7-0.7,6.7-2c0,0.5,0,1.6,0,1.6L289.4,86.3L289.4,86.3z M281.2,68.3v6.4
			c0,2.2-0.7,4-2,5.3c-1.3,1.2-3,1.7-5.1,1.6c-2-0.1-3.9-1-5.2-2.6c-1.9-2.2-2.8-5.3-2.4-8.5c0.4-3.9,2.1-8.6,7.7-8.8
			c2-0.1,3.8,0.6,5.1,1.8C280.6,64.7,281.2,66.4,281.2,68.3z"/>
	</g>
</g>
<g>
	<polygon class="st1" points="39.7,63.8 54.1,57 53.5,60.4 53.7,60.9 59.2,51.7 19.6,51.7 25.1,61 	"/>
	<path class="st2" d="M39.5,63.9l14.7-7.2c0,0-7.5,2.2-9.1,2.7l0,0c0.2-0.3,0.4-0.6,0.6-0.9c1-1.3,2-2.8,3.6-3.9
		c-1.9,1.4-3.8,3-6.3,4.3c0.1-1.8,0.9-3.5,1.5-5.3c-0.5,1.2-1.8,2.5-2.7,3.7c-0.4,0.4-0.8,0.9-1.2,1.3c-0.9-1.7-1.2-3.6-1.2-5.2
		c0,1.7-0.3,3.6-1.2,5.3c-0.4-0.3-0.7-0.7-1-1c-1.1-1.2-2.5-2.6-3-3.9c0.6,1.7,1.5,3.5,1.6,5.2c-0.6-0.3-1.2-0.7-1.8-1.1
		c-1.5-1-3.5-2.1-4.5-3.2c1.5,1.6,3.1,3.1,4.2,4.8l0,0c-1.6-0.5-9.2-3.1-9.9-3.7c0,0,1.2,5.4,1.2,5.3L39.5,63.9z"/>
	<path class="st3" d="M39.1,43.5c-11.2-0.8-17.7,1.1-19.3,1.4v3.3c3.4-0.8,9.4-1.8,18-2.1c0,0,0,0,0,0l0,0c0,0,0,0,0,0
		c11.8-0.2,19,1.1,21,1.7c0,0,0,0,0,0C58.8,47.8,52,44.6,39.1,43.5z"/>
	<path class="st4" d="M54.3,75.5c-5,6.1-11.9,10.4-14.7,11.7c0,0,0,0,0,0l0,0c0,0,0,0,0,0c-4.3-2-14.4-8.9-19-22.5
		c-0.1-0.4-0.2-0.8-0.3-1.1c0.1,0.5,0.1,1,0.2,1.5l0,0c0.2,0.9,0.4,1.7,0.6,2.5c4.3,14.5,14.6,22.1,18.5,24.1
		C42.5,90.1,49.4,84.3,54.3,75.5z"/>
	<path class="st1" d="M24.4,56.7l2.2,13c0,0,5.1,7.7,12.4,11.8l0-17.2L24.4,56.7z"/>
	<path class="st1" d="M40.1,63.8v17.6c0.2-0.1,0.3-0.2,0.5-0.3c0.1-0.1,0.2-0.2,0.4-0.2V63.6L40.1,63.8z"/>
	<path class="st0" d="M55.1,56c0,0-12,6.2-15.6,6.6c-4.1-0.4-15.1-5.9-15.1-5.9c7.1,5.9,14.9,7.8,15.2,7.8h0c0,0,5.9-1.1,13.9-6.9
		c-0.1,1.2-0.4,4.9-1.1,9.1L55.1,56C55.1,56,55.1,56.1,55.1,56z"/>
</g>
</svg>
