<svg xmlns="http://www.w3.org/2000/svg" width="300" height="60" viewBox="0 0 300 60" version="1.1"><path d="" stroke="none" fill="#0854a4" fill-rule="evenodd"/><path d="M 22.565 1.327 C 20.289 2.993, 19.131 11.156, 19.051 26.102 C 19.014 33, 18.266 38.615, 16.394 46.038 L 13.788 56.372 15.585 57.686 C 18.234 59.623, 18.572 59.410, 20.383 54.667 C 24.021 45.141, 25.054 36.495, 24.772 17.912 L 24.500 -0.089 22.565 1.327 M 30 17.542 C 30 42.695, 34.037 60.656, 39.082 57.956 C 41.474 56.676, 41.387 55.063, 38.385 45 C 37.302 41.372, 36.532 33.698, 36.122 22.450 C 35.614 8.533, 35.174 4.904, 33.727 2.700 C 30.442 -2.302, 30 -0.541, 30 17.542 M 11.631 10.250 C 10.784 11.597, 10.025 16.313, 9.741 22 C 9.480 27.225, 8.435 35.459, 7.418 40.297 C 5.587 49.014, 5.872 51.791, 8.696 52.732 C 11.571 53.690, 14.790 38.957, 15.683 20.750 C 16.347 7.222, 15.278 4.452, 11.631 10.250 M 39.579 11.431 C 37.817 20.823, 43.130 53.790, 46.238 52.754 C 49.113 51.796, 49.403 49.082, 47.626 39.812 C 46.643 34.690, 45.598 26.450, 45.303 21.500 C 44.601 9.722, 41.066 3.504, 39.579 11.431 M 69 28.186 L 69 42.371 66.826 44.686 C 63.683 48.030, 67.193 47.898, 70.545 44.545 L 73 42.091 73 29.617 C 73 17.790, 72.133 14, 69.429 14 C 69.193 14, 69 20.383, 69 28.186 M 82.270 15.483 C 72.520 19.721, 72.667 36.456, 82.490 40.560 C 93.571 45.190, 104.231 39.032, 104.231 28 C 104.231 16.952, 93.266 10.702, 82.270 15.483 M 106 28 C 106 35.700, 106.193 42, 106.429 42 C 110.179 42, 111.915 19.058, 108.429 15.571 C 107.564 14.707, 106.664 14, 106.429 14 C 106.193 14, 106 20.300, 106 28 M 126.661 15.823 C 125.672 16.915, 125 19.345, 125 21.829 L 125 26 118.559 26 C 115.016 26, 111.840 26.450, 111.500 27 C 111.110 27.631, 113.490 28, 117.941 28 L 125 28 125 33.345 C 125 37.723, 128.837 45.629, 129.032 41.655 C 129.916 23.712, 128.958 13.283, 126.661 15.823 M 174.257 15.250 C 171.961 18.155, 163.815 38.077, 164.352 39.474 C 165.401 42.210, 166.766 41.093, 168.597 36 L 170.395 31 174.948 31.004 L 179.500 31.007 181.383 35.585 C 182.967 39.437, 186.512 42.659, 187.843 41.457 C 188.390 40.963, 176.695 14, 175.933 14 C 175.555 14, 174.800 14.563, 174.257 15.250 M 191.200 15.200 C 190.390 16.010, 190 20.608, 190 29.337 L 190 42.274 196.718 41.735 C 207.067 40.904, 211.475 34.125, 205.354 28.452 C 203.899 27.104, 203.233 26, 203.875 26 C 205.635 26, 207.337 21.478, 206.633 18.674 C 205.634 14.695, 194.264 12.136, 191.200 15.200 M 211.200 15.200 C 210.392 16.008, 210 20.578, 210 29.200 L 210 42 214.532 42 C 225.648 42, 231.851 34.473, 225.549 28.633 L 223.097 26.361 225.049 24.690 C 227.030 22.994, 227.587 19.471, 226.214 17.313 C 224.311 14.319, 213.590 12.810, 211.200 15.200 M 235.116 15.712 C 226.064 20.172, 226.166 36.003, 235.274 40.326 C 245.930 45.382, 258 38.836, 258 28 C 258 17.153, 245.652 10.523, 235.116 15.712 M 257 15.207 L 254.500 16.440 259.250 16.775 L 264 17.110 264 29.710 L 264 42.310 266 40.500 C 267.765 38.903, 268 37.420, 268 27.903 L 268 17.115 272.250 16.807 C 274.587 16.638, 278.413 16.658, 280.750 16.851 L 285 17.201 285 29.101 C 285 35.645, 285.395 41, 285.878 41 C 288.072 41, 289.253 37.622, 289.113 31.740 C 289.032 28.308, 289.250 23.587, 289.596 21.250 L 290.227 17 293.555 17 C 295.385 17, 297.160 16.550, 297.500 16 C 297.885 15.376, 295.896 15, 292.217 15 C 288.972 15, 280.283 14.769, 272.908 14.487 C 263.377 14.123, 258.777 14.331, 257 15.207 M 132 26.800 C 132 37.953, 132.679 41, 135.164 41 C 135.584 41, 136.056 36.761, 136.214 31.581 L 136.500 22.161 145.500 32.071 C 150.450 37.521, 154.950 41.835, 155.500 41.658 C 156.711 41.268, 157.430 15, 156.229 15 C 153.906 15, 153 17.926, 153 25.430 L 153 33.460 143.731 24.230 C 131.797 12.346, 132 12.301, 132 26.800 M 3.253 19 C -0.322 24.569, -1.285 39.115, 1.723 42.123 C 3.356 43.756, 6.173 29.841, 5.803 21.962 L 5.500 15.500 3.253 19 M 49.260 24 C 49.879 33.212, 51.871 43, 53.126 43 C 55.656 43, 55.986 28.870, 53.603 22.630 C 50.242 13.831, 48.611 14.346, 49.260 24 M 83.503 18.250 C 76.099 24.637, 80.056 40, 89.105 40 C 97.974 40, 102.743 30.582, 98.452 21.540 C 95.751 15.848, 88.211 14.188, 83.503 18.250 M 238.302 16.961 C 232.810 19.300, 231.119 32.563, 235.725 37.170 C 239.379 40.823, 246.315 40.839, 249.952 37.202 C 258.929 28.225, 249.661 12.122, 238.302 16.961 M 194 22.019 L 194 27.038 196.750 26.385 C 204.743 24.486, 205.181 17, 197.300 17 L 194 17 194 22.019 M 214 22.019 L 214 27.038 216.750 26.385 C 224.743 24.486, 225.181 17, 217.300 17 L 214 17 214 22.019 M 173.119 24.982 C 170.755 30.263, 170.607 29.950, 175.082 29.145 L 178.664 28.500 176.892 24.506 L 175.121 20.512 173.119 24.982 M 194 33.276 C 194 39.356, 195.210 40.631, 199.448 39.020 C 204.412 37.133, 205.077 29.023, 200.271 28.986 C 199.297 28.979, 197.488 28.701, 196.250 28.370 L 194 27.767 194 33.276 M 214 33.348 C 214 39.383, 215.221 40.627, 219.536 38.986 C 222.277 37.944, 223.976 34.626, 223.230 31.772 C 222.652 29.562, 222.425 29.430, 217.750 28.586 L 214 27.909 214 33.348 M 76.016 48.970 C 74.473 51.852, 74.798 55.510, 76.750 57.246 C 78.685 58.967, 92.492 59.605, 91.454 57.925 C 91.139 57.416, 90.234 57, 89.441 57 C 87.383 57, 87.653 53.237, 89.750 52.689 L 91.500 52.232 89.750 52.116 C 87.104 51.941, 87.529 48.222, 90.250 47.744 C 91.487 47.527, 89.020 47.287, 84.766 47.210 C 78.110 47.091, 76.891 47.336, 76.016 48.970 M 93.655 48.829 C 89.800 53.088, 93.054 59, 99.254 59 C 102.211 59, 103.455 57.327, 102.742 54.308 C 102.393 52.833, 102.106 53.006, 101.182 55.250 C 99.835 58.520, 98.687 58.687, 96 56 C 92.179 52.179, 94.637 47.277, 99.850 48.320 C 101.660 48.682, 103 48.535, 103 47.975 C 103 46.192, 95.414 46.885, 93.655 48.829 M 104 53 L 104 59 107 59 C 108.650 59, 110 58.550, 110 58 C 110 57.450, 109.100 57, 108 57 C 105.120 57, 105.337 53.267, 108.250 52.706 L 110.500 52.272 108.250 52.136 C 106.741 52.045, 106 51.364, 106 50.070 C 106 48.863, 106.843 47.977, 108.250 47.706 C 109.877 47.392, 109.600 47.235, 107.250 47.136 L 104 47 104 53 M 111 52.440 C 111 55.498, 111.450 58, 112 58 C 112.550 58, 113 55.750, 113 53 C 113 49.313, 113.378 48, 114.441 48 C 116.810 48, 117.438 50.207, 115.476 51.641 C 113.059 53.408, 114.232 54.481, 116.975 53.013 C 120.612 51.067, 119.274 47.564, 114.750 47.190 L 111 46.879 111 52.440 M 121.708 52.522 C 118.738 58.579, 118.497 59.429, 120.019 58.488 C 120.975 57.897, 126 48.694, 126 47.533 C 126 45.524, 124.001 47.847, 121.708 52.522 M 128.655 48.829 C 126.430 51.288, 126.568 54.568, 129 57 C 131.194 59.194, 135.469 59.668, 136.597 57.842 C 137.085 57.053, 136.642 56.860, 135.203 57.237 C 131.872 58.108, 129.794 55.927, 130.171 51.956 C 130.464 48.879, 130.884 48.432, 134 47.882 L 137.500 47.263 133.905 47.132 C 131.563 47.046, 129.733 47.637, 128.655 48.829 M 138.278 48.250 C 134.524 53.102, 137.148 58.950, 143.095 58.985 C 147.898 59.013, 151.152 51.552, 147.800 48.200 C 146.221 46.621, 139.511 46.656, 138.278 48.250 M 150 53 L 150 59 153 59 C 154.650 59, 156 58.550, 156 58 C 156 57.450, 155.100 57, 154 57 C 152.267 57, 152 56.333, 152 52 C 152 49.250, 151.550 47, 151 47 C 150.444 47, 150 49.667, 150 53 M 157 52.531 C 157 58.457, 157.906 59.537, 162.177 58.706 L 164.500 58.254 162.250 57.510 C 160.521 56.939, 160 56.002, 160 53.465 C 160 49.601, 159.152 47, 157.893 47 C 157.402 47, 157 49.489, 157 52.531 M 165 53 L 165 59 168.059 59 C 169.844 59, 170.861 58.583, 170.500 58 C 170.160 57.450, 169.234 57, 168.441 57 C 166.383 57, 166.653 53.237, 168.750 52.689 L 170.500 52.232 168.750 52.116 C 166.111 51.941, 166.532 48.229, 169.250 47.706 C 170.877 47.392, 170.600 47.235, 168.250 47.136 L 165 47 165 53 M 172.655 48.829 C 169.020 52.846, 172.273 59, 178.031 59 C 181.208 59, 182.473 57.402, 181.742 54.308 C 181.392 52.829, 181.110 52.997, 180.190 55.230 C 178.028 60.476, 172.143 55.502, 174.145 50.122 C 174.910 48.066, 175.503 47.820, 178.515 48.309 C 180.432 48.620, 182 48.453, 182 47.937 C 182 46.182, 174.393 46.908, 172.655 48.829 M 183 53 L 183 59 186 59 C 187.650 59, 189 58.550, 189 58 C 189 57.450, 188.100 57, 187 57 C 184.120 57, 184.337 53.267, 187.250 52.706 L 189.500 52.272 187.250 52.136 C 184.176 51.950, 184.176 48.298, 187.250 47.706 C 188.877 47.392, 188.600 47.235, 186.250 47.136 L 183 47 183 53 M 78.200 49.200 C 75.434 51.966, 78.328 58.855, 81.711 57.558 C 82.510 57.251, 83.577 57, 84.082 57 C 84.587 57, 85 54.975, 85 52.500 L 85 48 82.200 48 C 80.660 48, 78.860 48.540, 78.200 49.200 M 140.238 49.162 C 136.959 52.441, 140.294 58.975, 144.436 57.386 C 146.461 56.609, 147.594 52.168, 146.295 50.095 C 145.016 48.054, 141.836 47.564, 140.238 49.162" stroke="none" fill="#0454a4" fill-rule="evenodd"/></svg>