<svg id="Layer_1" data-name="Layer 1" xmlns="http://www.w3.org/2000/svg" viewBox="0 0 170.92 40.54"><defs><style>.cls-1{fill:#fff;}.cls-1,.cls-2,.cls-3,.cls-4{fill-rule:evenodd;}.cls-2{fill:none;}.cls-2,.cls-3{stroke:#fff;stroke-width:0.5px;}.cls-3,.cls-4{fill:#ec1b2e;}</style></defs><title>mcgill-logo-red-reverse-XL-header</title><path class="cls-1" d="M140.91,5.5a2.43,2.43,0,1,1-2.43,2.41,2.44,2.44,0,0,1,2.43-2.41ZM164.1,31.17c-.11,1.06-.6,1.76-2.62,2.31-1.59.51-1.39,1.34.21,1.4a29.64,29.64,0,0,1,9.57-.09c1.53,0,1.27-1,.32-1.44-2.27-.87-2.63-.89-3.09-3.12l-.17-22.49c0-1.29.5-2.8-.9-2.46-2.59,1-2.81,1.11-5.17,1.91-1.24.53-.77,1.13.13,1.42a2.09,2.09,0,0,1,1.44,2.19l.28,20.37ZM150.75,31c-.1,1.06-.6,1.76-2.61,2.31-1.59.51-1.4,1.34.21,1.4a29.62,29.62,0,0,1,9.57-.08c1.52,0,1.27-1,.32-1.45-2.27-.87-2.64-.89-3.09-3.11L155,7.62c0-1.3.5-2.8-.9-2.46-2.59,1-2.81,1.1-5.17,1.9-1.25.53-.77,1.13.13,1.43a2.07,2.07,0,0,1,1.43,2.18L150.75,31Zm-12.16-8.85c-.11-1.14-.26-2-1.59-2.42-.94-.08-1.39-.93,0-1.44a11.67,11.67,0,0,0,5.17-2.67c.64-.34,1.4-.07,1,1.08A17.15,17.15,0,0,0,143,19l0,11.71c.11,1.91,1.61,2.22,2.57,2.6s1.06,1.51-.08,1.53c-4.21-.57-5.13-.63-9.18.17-1.36,0-1.65-1,0-1.59s2.23-.87,2.32-2.29l0-8.89ZM101.37,20c.95-10,7.43-14.18,16.54-14.92,9.61.07,11,.7,10.86,6,.06,1.91-1.23,2.35-2.13.19a7.38,7.38,0,0,0-4.33-4.08C114,5.39,107.89,10.65,107.53,19.6,107,32.23,121.24,35.92,124.2,31.21c.62-1.23.62-4.5.53-7.19-.51-1.79-2.23-1.62-3.9-1.68-1.8.13-2.45-1.89,0-1.87a117.18,117.18,0,0,0,12.63-.31c1.72.06,1.85,1.61-.25,1.84-.91.17-2.81.15-3.07,1.63-.22,7.68,1.59,8.43-4.27,10.53-7.47,1.74-15.51.93-20.06-3.42A14.35,14.35,0,0,1,101.37,20ZM82.09,25.16c.83-8.32,7.81-10.27,11.39-10.29,4.25.13,5.6,1.51,5.64,2.91a1.63,1.63,0,0,1-2.06,1.84c-2.34-.59-1.89-3-5-3.22-3.51.51-5.64,4.41-5,9.08s5.17,8.15,10.75,5.3c1.35-.29,1.46.81.36,1.57-10.25,6.24-16.47-2.65-16-7.19Zm-31.66-14c-.22-2.86-1.12-2-3.33-2.86-1.78-.34-1.93-1.61-.17-1.68a28.16,28.16,0,0,0,7.4-.13A2.45,2.45,0,0,1,56.5,8.36c2.21,4.62,5.42,11.56,7.63,16.19.39.82.6,1,1.1-.07L71.75,8c.73-1.4,1.52-1.74,3.8-1.53a43.23,43.23,0,0,0,6.82-.25C84,6.28,83.93,7.55,82.28,8c-2.53,0-3.86.87-4.25,2.73l.37,18.93c.41,2.82,1.89,2.91,4.55,3.58,1.2.54.94,1.36-.09,1.64a48,48,0,0,0-13-.06c-1.59.14-1.69-1.21,0-1.58,2-.44,2.56-.8,3-1.86l-.4-18.25c-.07-.72-.52-.72-.8.13L63.9,32.5c-.73,1.64-1,1.64-1.85.36l-9.2-19.71c-.28-.68-.62-.46-.66,0l.08,17.4c.26,2,1.67,2.14,4.55,3,.81.26.86.93.19,1.36a40.55,40.55,0,0,0-11.73.19c-.82,0-1.2-1.19.06-1.36,2.77-.78,3.52-.82,3.93-2.4L50.43,11.2Z" transform="translate(-1.43 -1.66)"/><path class="cls-2" d="M2.53,20.29c-1.45-5.12-.6-9.87-.6-15.6C7.12,2.14,12.25,1.91,17.82,1.91c4.81,0,11.64.61,15.75,2.77.42,5.41.67,10.17-.74,16.32A34.84,34.84,0,0,1,18,41.9C7.86,35.31,4.53,27.34,2.53,20.29Z" transform="translate(-1.43 -1.66)"/><path class="cls-3" d="M2.65,20.31c-1.45-5.09-.6-9.8-.6-15.49C7.2,2.29,12.3,2.06,17.82,2.06c4.78,0,11.55.61,15.63,2.75.42,5.37.66,10.09-.73,16.19A34.64,34.64,0,0,1,18,41.75C7.93,35.21,4.63,27.3,2.65,20.31Z" transform="translate(-1.43 -1.66)"/><path class="cls-1" d="M7.47,12.85,2.18,18.72A36.47,36.47,0,0,0,18,41.91C29.16,34.3,32.6,23.72,33.27,18.52L28,12.83,22.65,18.2l-4.93-5.32-4.91,5.25L7.47,12.85Z" transform="translate(-1.43 -1.66)"/><path class="cls-1" d="M7.44,9.31a7.55,7.55,0,0,1,2.7.38,16.24,16.24,0,0,0,1.14-2.42c-.33-.12-.64.31-.77.34-.24-.36-.47-.36-.59-.34s-.09.12,0,.15c1.25,1-.6,2.08-.92,1-1.59.13-1.18-1.14-.77-1.3s0-.12,0-.15-.3,0-.33,0c0-.62-.05-1.1-.43-1.31C7.06,6,7,6.44,7,7.06,7,7,6.79,7,6.69,7s-.3.07,0,.15.82,1.42-.77,1.29c-.32,1.05-2.17,0-.92-1,.08,0,.19-.09,0-.15s-.35,0-.59.35c-.13,0-.44-.47-.78-.35A15.3,15.3,0,0,0,4.74,9.69a7.7,7.7,0,0,1,2.7-.38Zm0,1.33a8.27,8.27,0,0,1,2.05.23c.14-.28.38-.76.51-.95a7.45,7.45,0,0,0-2.56-.36,7.45,7.45,0,0,0-2.56.36c.12.2.37.67.5,1a8.3,8.3,0,0,1,2.06-.24ZM8.89,8.71l.37.54-.85-.08.48-.46ZM8.38,9.83a.3.3,0,1,0,.29.29.3.3,0,0,0-.29-.29Zm.9.19a.28.28,0,1,0,.29.28A.28.28,0,0,0,9.28,10ZM7.44,11.4c-1.13,0-2-.11-2-.24s.84-.28,2-.28,2,.14,2,.27-.84.25-2,.25Zm0-1.62a.3.3,0,0,1,.3.29.3.3,0,1,1-.59,0,.3.3,0,0,1,.29-.29Zm-.91.05a.3.3,0,1,1-.29.29.3.3,0,0,1,.29-.29Zm-.9.19a.28.28,0,0,1,0,.56.28.28,0,0,1,0-.56Zm1.81-1.9.61,1H6.84l.59-1ZM6,8.71l-.38.54.85-.08L6,8.71Z" transform="translate(-1.43 -1.66)"/><path class="cls-1" d="M28,9.31a7.48,7.48,0,0,1,2.7.38,15.27,15.27,0,0,0,1.15-2.42c-.34-.12-.64.31-.78.34-.24-.36-.47-.36-.58-.34s-.09.12,0,.15c1.24,1-.6,2.08-.92,1-1.6.13-1.18-1.14-.77-1.3s0-.12,0-.15-.3,0-.32,0c0-.62-.05-1.1-.43-1.31-.38.21-.45.7-.42,1.32,0-.09-.22-.07-.32,0s-.31.07,0,.15.83,1.42-.77,1.29c-.32,1.05-2.17,0-.92-1,.08,0,.19-.09,0-.15s-.34,0-.58.35c-.14,0-.45-.47-.78-.35a15.34,15.34,0,0,0,1.14,2.42A7.78,7.78,0,0,1,28,9.31Zm0,1.33a8.29,8.29,0,0,1,2.06.23c.14-.28.38-.76.51-.95A7.51,7.51,0,0,0,28,9.56a7.48,7.48,0,0,0-2.56.36c.13.2.37.67.51,1a8.27,8.27,0,0,1,2-.24Zm1.45-1.93.38.54L29,9.17l.47-.46Zm-.5,1.12a.3.3,0,1,0,0,.59.3.3,0,0,0,0-.59Zm.9.19a.28.28,0,1,0,0,.56.28.28,0,0,0,0-.56ZM28,11.4c-1.12,0-2-.11-2-.24s.83-.28,2-.28,2,.14,2,.27-.84.25-2,.25Zm0-1.62a.29.29,0,0,1,.29.29.3.3,0,0,1-.29.3.31.31,0,0,1-.29-.3A.3.3,0,0,1,28,9.78Zm-.91.05a.3.3,0,0,1,0,.59.3.3,0,0,1,0-.59Zm-.91.19a.28.28,0,1,1-.28.28.28.28,0,0,1,.28-.28ZM28,8.12l.61,1H27.4l.59-1Zm-1.42.59-.38.54L27,9.17l-.47-.46Z" transform="translate(-1.43 -1.66)"/><path class="cls-4" d="M6.82,22.74c.07-.17.25-.67.32-.83a.52.52,0,0,0-.4-.34c.08-.16.36-.37.31-.52s-.19-.13-.48-.29A.7.7,0,0,1,7,20.42c.16,0,.16-.26.44-.41a1.64,1.64,0,0,1,.92-.16,1.46,1.46,0,0,1,1.38,1.88c.76,1.51,3.4-.5,4.33-.5-.17.34-.43.68-.59,1,.25.17.59,0,.85,0a2.88,2.88,0,0,1-1.19,1.5c.43,1.34,2,.82,3.39.66-.17.46-.76.5-1,.84a8,8,0,0,1,1.35,1.85,14.59,14.59,0,0,0-2.38-1,5.76,5.76,0,0,0-3.39,0,1.9,1.9,0,0,0,.77.67c-.43.84-1.28.34-1.79.17a1.52,1.52,0,0,1-1.44.17.55.55,0,0,1,.25-.4c.17-.24-.51-.28-.68-.61,0-.31.33,0,.52-.34-.43-.84-2.21-1-1.95-3ZM8,20.35a.17.17,0,0,1,.17.17.17.17,0,0,1-.34,0A.17.17,0,0,1,8,20.35Z" transform="translate(-1.43 -1.66)"/><path class="cls-4" d="M18.81,23c.08-.16.26-.66.33-.83a.54.54,0,0,0-.4-.34c.07-.16.36-.37.3-.52s-.18-.13-.48-.28a.7.7,0,0,1,.48-.35c.16,0,.16-.26.43-.4a1.61,1.61,0,0,1,.93-.17A1.47,1.47,0,0,1,21.78,22c.76,1.5,3.39-.5,4.33-.5-.18.33-.43.67-.6,1,.26.17.6,0,.86,0a2.85,2.85,0,0,1-1.2,1.5c.43,1.34,2,.83,3.4.67-.17.46-.76.5-1,.84a8,8,0,0,1,1.35,1.84,14.59,14.59,0,0,0-2.38-1,6,6,0,0,0-3.4,0,1.91,1.91,0,0,0,.78.67c-.44.84-1.28.34-1.79.17a1.51,1.51,0,0,1-1.45.17.55.55,0,0,1,.26-.4c.17-.23-.51-.28-.69-.61,0-.3.33,0,.52-.33-.43-.84-2.2-1-2-3ZM20,20.59a.17.17,0,0,1,.17.17.16.16,0,0,1-.17.17.17.17,0,0,1-.17-.17.18.18,0,0,1,.17-.17Z" transform="translate(-1.43 -1.66)"/><path class="cls-4" d="M13.07,31.38c.07-.16.25-.66.33-.83a.57.57,0,0,0-.41-.34c.08-.16.36-.37.31-.52s-.19-.13-.48-.28a.69.69,0,0,1,.47-.35c.16,0,.16-.26.44-.41a1.64,1.64,0,0,1,.92-.16A1.47,1.47,0,0,1,16,30.38c.76,1.5,3.4-.5,4.33-.5-.17.33-.43.67-.59,1,.25.17.59,0,.85,0a2.84,2.84,0,0,1-1.19,1.5c.43,1.34,2,.82,3.39.67-.17.46-.76.5-1,.84a7.74,7.74,0,0,1,1.35,1.84,13.32,13.32,0,0,0-2.38-1,5.76,5.76,0,0,0-3.39,0,1.87,1.87,0,0,0,.77.66c-.43.84-1.28.34-1.79.18a1.51,1.51,0,0,1-1.44.16.55.55,0,0,1,.25-.4c.18-.23-.51-.28-.68-.6,0-.31.33,0,.52-.34-.43-.84-2.21-1-1.95-3ZM14.26,29a.16.16,0,0,1,.16.16.16.16,0,0,1-.32,0,.16.16,0,0,1,.16-.16Z" transform="translate(-1.43 -1.66)"/><path class="cls-1" d="M17.81,10.82c-.24.22-.33.3-.28.51h.61c0-.23-.06-.33-.33-.51ZM21.3,4.24a2,2,0,0,1-1.42,0,2.52,2.52,0,0,0-1.94-.19v6.43a2.48,2.48,0,0,1,1.68,0,3.63,3.63,0,0,0,1.68.08V4.24Zm.21,0,.57.53v6.37l-.57-.52V4.24ZM22,11.31l-.6-.51a4.43,4.43,0,0,1-1.84-.1c-.75-.15-1.06-.24-1.56,0a.73.73,0,0,1,.43.64Zm-8.25,0,.59-.52a4.42,4.42,0,0,0,1.84-.1c.76-.14,1.07-.24,1.56,0a.69.69,0,0,0-.42.63Zm.39-7-.56.53v6.37l.56-.52V4.29Zm.22,0a2,2,0,0,0,1.43,0,2.52,2.52,0,0,1,1.94-.19v6.43a2.51,2.51,0,0,0-1.69,0,3.6,3.6,0,0,1-1.67.08V4.24Z" transform="translate(-1.43 -1.66)"/><path class="cls-4" d="M18.26,5.42A.37.37,0,0,1,18.65,5a.32.32,0,0,1,.36.3h-.17a.16.16,0,0,0-.18-.15c-.13,0-.23.12-.23.3s.08.27.21.27.19,0,.2-.16H19a.33.33,0,0,1-.36.32c-.22,0-.4-.16-.39-.47Zm.83.15a.4.4,0,0,1,.42-.47.39.39,0,0,1,.4.45.41.41,0,0,1-.82,0Zm.17-.07c0,.16.06.31.25.31s.22-.12.22-.27,0-.28-.22-.28-.22,0-.25.24Zm.83.54V5.2h.17l.35.57V5.2h.17V6h-.17l-.34-.57V6ZM19,7.63V6.79h.6v.15h-.42v.2h.37v.14h-.37v.35Zm.8.1V6.88H20v.85Zm-.64,1.66h-.41V8.55h.4c.45,0,.36.8,0,.84Zm-.24-.14h.17c.23,0,.25-.55,0-.55h-.16v.55Zm.7-.12A.41.41,0,0,1,20,8.66a.4.4,0,0,1,.41.45.41.41,0,0,1-.82,0Zm.17-.06c0,.15.06.31.24.31s.23-.12.23-.28,0-.28-.23-.28-.22,0-.24.25ZM15.27,6V5.11h.18V6Zm.38-.1V5h.17l.35.57V5h.17v.84h-.17l-.34-.57v.57ZM15,7.73h-.41V6.88H15c.45.06.35.8,0,.85Zm-.24-.15H15c.23,0,.25-.54,0-.54h-.16v.54Zm.64-.4a.42.42,0,0,1,.42-.47.39.39,0,0,1,.4.45.41.41,0,0,1-.82,0Zm.18-.06c0,.15.05.3.24.3s.23-.11.23-.27,0-.28-.23-.28-.22,0-.24.25Zm.8.41V6.69h.26l.16.63L17,6.69h.25v.84h-.18V6.86l-.14.67h-.19l-.14-.67v.67ZM15,9.55V8.71h.18v.84Zm.38-.1V8.61h.17l.35.56V8.61h.18v.84h-.18l-.34-.57v.57ZM16.25,9a.41.41,0,0,1,.41-.47.38.38,0,0,1,.4.45.41.41,0,1,1-.81,0Zm.17-.06c0,.15.06.3.24.3s.23-.11.23-.27,0-.28-.23-.28-.22,0-.24.25Z" transform="translate(-1.43 -1.66)"/></svg>